<svg width="17" height="18" viewBox="0 0 17 18" fill="none" xmlns="http://www.w3.org/2000/svg">
<g clip-path="url(#clip0_23_2528)">
<path d="M16.6591 8.92452C16.6591 11.1306 15.7874 13.2463 14.2357 14.8063C12.6841 16.3662 10.5796 17.2426 8.38524 17.2426C6.19088 17.2426 4.08639 16.3662 2.53474 14.8063C0.983096 13.2463 0.111389 11.1306 0.111389 8.92452C0.111389 6.71843 0.983096 4.60269 2.53474 3.04275C4.08639 1.48281 6.19088 0.606445 8.38524 0.606445C10.5796 0.606445 12.6841 1.48281 14.2357 3.04275C15.7874 4.60269 16.6591 6.71843 16.6591 8.92452ZM8.38524 4.2456C8.38524 4.10772 8.33076 3.97549 8.23378 3.87799C8.1368 3.78049 8.00527 3.72572 7.86812 3.72572C7.73097 3.72572 7.59944 3.78049 7.50247 3.87799C7.40549 3.97549 7.35101 4.10772 7.35101 4.2456V9.96427C7.35104 10.0559 7.37516 10.1459 7.42093 10.2252C7.46669 10.3044 7.53249 10.3701 7.61163 10.4155L11.2314 12.495C11.3502 12.5596 11.4894 12.5749 11.6193 12.5376C11.7491 12.5003 11.8593 12.4135 11.9263 12.2956C11.9933 12.1778 12.0118 12.0382 11.9778 11.9068C11.9438 11.7755 11.86 11.6627 11.7444 11.5925L8.38524 9.66274V4.2456Z" fill="#037E8C"/>
</g>
<defs>
<clipPath id="clip0_23_2528">
<rect width="16.5477" height="16.6361" fill="white" transform="translate(0.111389 0.606445)"/>
</clipPath>
</defs>
</svg>
