<svg width="23" height="22" viewBox="0 0 23 22" fill="none" xmlns="http://www.w3.org/2000/svg">
<path d="M19.7557 7.65265L14.3903 6.86871L11.9918 1.98022C11.9263 1.84638 11.8185 1.73803 11.6854 1.67217C11.3515 1.50646 10.9457 1.64455 10.7788 1.98022L8.38029 6.86871L3.01484 7.65265C2.86692 7.6739 2.73167 7.74401 2.62813 7.85023C2.50294 7.97959 2.43396 8.15361 2.43634 8.33407C2.43872 8.51453 2.51226 8.68666 2.64081 8.81264L6.52278 12.6176L5.60564 17.9905C5.58413 18.1155 5.59789 18.244 5.64535 18.3616C5.69281 18.4791 5.77208 18.5809 5.87416 18.6554C5.97625 18.73 6.09706 18.7743 6.22291 18.7833C6.34876 18.7923 6.4746 18.7657 6.58617 18.7065L11.3853 16.1698L16.1844 18.7065C16.3154 18.7766 16.4676 18.7999 16.6134 18.7744C16.9811 18.7107 17.2283 18.3602 17.1649 17.9905L16.2478 12.6176L20.1297 8.81264C20.2354 8.70853 20.3051 8.57257 20.3263 8.42385C20.3833 8.05206 20.1255 7.70789 19.7557 7.65265Z" fill="#037E8C"/>
</svg>
