<svg width="31" height="32" viewBox="0 0 31 32" fill="none" xmlns="http://www.w3.org/2000/svg">
<path d="M7.87975 6.21912C7.3818 6.21861 6.88865 6.31684 6.42852 6.50818C5.96838 6.69952 5.5503 6.98021 5.1982 7.3342C4.8461 7.68818 4.5669 8.10849 4.37658 8.57109C4.18626 9.03368 4.08855 9.52947 4.08905 10.0301C4.08905 12.8877 7.87975 17.1068 7.87975 17.1068C7.87975 17.1068 11.6704 12.8877 11.6704 10.0301C11.6709 9.52947 11.5732 9.03368 11.3829 8.57109C11.1926 8.10849 10.9134 7.68818 10.5613 7.3342C10.2092 6.98021 9.79111 6.69952 9.33098 6.50818C8.87084 6.31684 8.37769 6.21861 7.87975 6.21912ZM7.87975 11.3904C7.61213 11.3904 7.35052 11.3106 7.12801 11.1611C6.90549 11.0117 6.73207 10.7992 6.62965 10.5506C6.52724 10.3021 6.50045 10.0286 6.55265 9.76469C6.60486 9.50081 6.73373 9.25842 6.92297 9.06818C7.1122 8.87793 7.3533 8.74838 7.61577 8.69589C7.87825 8.6434 8.15031 8.67034 8.39755 8.7733C8.6448 8.87626 8.85612 9.05061 9.0048 9.27432C9.15348 9.49802 9.23284 9.76103 9.23284 10.0301C9.2325 10.3908 9.08984 10.7366 8.83616 10.9916C8.58248 11.2466 8.23851 11.3901 7.87975 11.3904Z" fill="#121214"/>
<path d="M26.9834 14.9134V9.41065C26.9745 8.83281 26.8871 8.2589 26.7238 7.70481C26.3061 6.23996 25.3817 4.97326 24.1173 4.13298C22.8528 3.2927 21.3314 2.93411 19.8272 3.12183C18.323 3.30955 16.9349 4.03123 15.9132 5.15682C14.8914 6.2824 14.3032 7.73787 14.2544 9.26093V9.5783L14.2417 10.6916V23.4272H14.2366V23.4797C14.2366 24.1585 13.9684 24.8095 13.491 25.2895C13.0135 25.7695 12.366 26.0391 11.6908 26.0391C11.0156 26.0391 10.3681 25.7695 9.89066 25.2895C9.41323 24.8095 9.14501 24.1585 9.14501 23.4797C9.14501 23.4644 9.14883 23.449 9.1501 23.4324H9.14501V20.9459H6.59921V23.5053H6.60176C6.6026 24.8622 7.13958 26.1632 8.09456 27.1221C9.04954 28.081 10.3443 28.6192 11.694 28.6184C13.0437 28.6175 14.3378 28.0777 15.2916 27.1176C16.2454 26.1575 16.7807 24.8558 16.7799 23.4989H16.7824V22.2422H16.7888V11.9713L16.8015 9.5783V9.26221C16.8378 8.25477 17.2666 7.30208 17.9955 6.60974C18.7243 5.9174 19.6947 5.54093 20.6973 5.56159C21.6998 5.58226 22.654 5.99839 23.3541 6.72018C24.0541 7.44197 24.4437 8.41153 24.4389 9.41961V14.8903C23.9515 15.1676 23.5686 15.5988 23.3498 16.1171C23.1309 16.6354 23.0883 17.2118 23.2284 17.757C23.3686 18.3021 23.6837 18.7856 24.125 19.1323C24.5663 19.479 25.109 19.6697 25.6691 19.6748C26.2291 19.6799 26.7752 19.499 27.2226 19.1603C27.67 18.8216 27.9938 18.344 28.1437 17.8015C28.2936 17.2589 28.2612 16.6819 28.0517 16.1597C27.8422 15.6375 27.4671 15.1994 26.9847 14.9134H26.9834Z" fill="#121214"/>
</svg>
